<svg width="73" height="73" viewBox="0 0 73 73" fill="none" xmlns="http://www.w3.org/2000/svg">
<rect width="73" height="73" rx="22" fill="url(#paint0_linear_1347_2074)"/>
<path d="M27.2129 23L29.4286 25.3797L24.4314 30.7468L29.4286 36.1139L27.2129 38.5105L20 30.7468L27.2129 23ZM36.3586 23L43.5714 30.7468L36.3586 38.5105L34.1429 36.1139L39.14 30.7468L34.1429 25.3797L36.3586 23ZM53 27.3713V47.6245C53 49.4979 51.6014 51 49.8571 51H24.7143C23.8807 51 23.0813 50.6444 22.4919 50.0113C21.9025 49.3783 21.5714 48.5197 21.5714 47.6245V40.8734H24.7143V47.6245H49.8571V27.3713H45.19V23.9958H49.8571C51.6014 23.9958 53 25.4979 53 27.3713Z" fill="white"/>
<defs>
<linearGradient id="paint0_linear_1347_2074" x1="36.5" y1="73" x2="36.5" y2="0" gradientUnits="userSpaceOnUse">
<stop stop-color="#00B0B5"/>
<stop offset="1" stop-color="#0092D5"/>
</linearGradient>
</defs>
</svg>
