<svg width="73" height="73" viewBox="0 0 73 73" fill="none" xmlns="http://www.w3.org/2000/svg">
<rect width="73" height="73" rx="22" fill="url(#paint0_linear_1347_2112)"/>
<path d="M45.0312 25.5312H49.9062V30.4062H45.0312V25.5312ZM45.0312 32.8438H49.9062V37.7188H45.0312V32.8438ZM37.7188 25.5312H42.5938V30.4062H37.7188V25.5312ZM37.7188 32.8438H42.5938V37.7188H37.7188V32.8438Z" fill="white"/>
<path d="M34.6719 48.6875C35.6815 48.6875 36.5 47.869 36.5 46.8594C36.5 45.8497 35.6815 45.0312 34.6719 45.0312C33.6622 45.0312 32.8438 45.8497 32.8438 46.8594C32.8438 47.869 33.6622 48.6875 34.6719 48.6875Z" fill="white"/>
<path d="M42.5938 53.5625H26.75C26.1035 53.5625 25.4835 53.3057 25.0264 52.8486C24.5693 52.3915 24.3125 51.7715 24.3125 51.125V21.875C24.3125 21.2285 24.5693 20.6085 25.0264 20.1514C25.4835 19.6943 26.1035 19.4375 26.75 19.4375H42.5938V21.875H26.75V51.125H42.5938V41.375H45.0312V51.125C45.0312 51.7715 44.7744 52.3915 44.3173 52.8486C43.8602 53.3057 43.2402 53.5625 42.5938 53.5625Z" fill="white"/>
<defs>
<linearGradient id="paint0_linear_1347_2112" x1="36.5" y1="73" x2="36.5" y2="0" gradientUnits="userSpaceOnUse">
<stop stop-color="#00B0B5"/>
<stop offset="1" stop-color="#0092D5"/>
</linearGradient>
</defs>
</svg>
