<svg width="73" height="73" viewBox="0 0 73 73" fill="none" xmlns="http://www.w3.org/2000/svg">
<rect width="73" height="73" rx="22" fill="url(#paint0_linear_1347_2092)"/>
<path d="M23 25.2393C23 23.3193 23.7998 21.478 25.2233 20.1203C26.6469 18.7627 28.5777 18 30.591 18H42.3991C43.969 17.9998 45.5003 18.4638 46.7822 19.328C48.064 20.1923 49.0334 21.4143 49.5568 22.8257C50.0802 24.2372 50.1318 25.7687 49.7046 27.2093C49.2774 28.65 48.3923 29.9288 47.1713 30.8698C48.6943 32.0399 49.6849 33.7255 49.9368 35.5751C50.1886 37.4246 49.6822 39.2956 48.5231 40.7978C47.3639 42.3 45.6416 43.3177 43.715 43.6385C41.7885 43.9594 39.8064 43.5588 38.1819 42.5202V47.7615C38.1818 48.9843 37.8569 50.1871 37.2375 51.2578C36.6181 52.3285 35.7244 53.2321 34.6398 53.8843C33.5552 54.5365 32.315 54.9161 31.035 54.9876C29.755 55.0591 28.4768 54.8203 27.3197 54.2933C26.1627 53.7664 25.1645 52.9685 24.4182 51.9741C23.6719 50.9798 23.2019 49.8213 23.052 48.6069C22.9022 47.3925 23.0773 46.1616 23.5611 45.0292C24.0449 43.8968 24.8216 42.8997 25.8188 42.1309C24.9384 41.4522 24.2284 40.5944 23.7407 39.6201C23.253 38.6459 22.9999 37.5799 23 36.5004C23 34.2256 24.0998 32.197 25.8188 30.8698C24.9384 30.1911 24.2284 29.3333 23.7407 28.359C23.253 27.3848 22.9999 26.3189 23 25.2393ZM30.591 29.2611H34.8082V21.2175H30.591C29.4725 21.2175 28.3998 21.6412 27.609 22.3954C26.8181 23.1497 26.3738 24.1726 26.3738 25.2393C26.3738 26.3059 26.8181 27.3289 27.609 28.0831C28.3998 28.8374 29.4725 29.2611 30.591 29.2611ZM38.1819 21.2175V29.2611H42.3991C43.5176 29.2611 44.5903 28.8374 45.3812 28.0831C46.172 27.3289 46.6163 26.3059 46.6163 25.2393C46.6163 24.1726 46.172 23.1497 45.3812 22.3954C44.5903 21.6412 43.5176 21.2175 42.3991 21.2175H38.1819ZM34.8082 32.4786H30.591C29.4725 32.4786 28.3998 32.9023 27.609 33.6565C26.8181 34.4108 26.3738 35.4337 26.3738 36.5004C26.3738 37.567 26.8181 38.59 27.609 39.3442C28.3998 40.0985 29.4725 40.5222 30.591 40.5222H34.8082V32.4786ZM34.8082 43.7396H30.591C29.7569 43.7396 28.9415 43.9755 28.248 44.4174C27.5545 44.8594 27.014 45.4875 26.6948 46.2224C26.3756 46.9573 26.2921 47.7659 26.4548 48.5461C26.6175 49.3262 27.0192 50.0429 27.609 50.6053C28.1987 51.1678 28.9502 51.5508 29.7682 51.706C30.5863 51.8612 31.4342 51.7815 32.2048 51.4771C32.9754 51.1727 33.6341 50.6573 34.0974 49.9959C34.5608 49.3345 34.8082 48.5569 34.8082 47.7615V43.7396ZM38.1819 36.5004C38.1819 37.567 38.6262 38.59 39.4171 39.3442C40.208 40.0985 41.2807 40.5222 42.3991 40.5222C43.5176 40.5222 44.5903 40.0985 45.3812 39.3442C46.172 38.59 46.6163 37.567 46.6163 36.5004C46.6163 35.4337 46.172 34.4108 45.3812 33.6565C44.5903 32.9023 43.5176 32.4786 42.3991 32.4786C41.2807 32.4786 40.208 32.9023 39.4171 33.6565C38.6262 34.4108 38.1819 35.4337 38.1819 36.5004Z" fill="white"/>
<defs>
<linearGradient id="paint0_linear_1347_2092" x1="36.5" y1="73" x2="36.5" y2="0" gradientUnits="userSpaceOnUse">
<stop stop-color="#00B0B5"/>
<stop offset="1" stop-color="#0092D5"/>
</linearGradient>
</defs>
</svg>
