<svg width="73" height="73" viewBox="0 0 73 73" fill="none" xmlns="http://www.w3.org/2000/svg">
<rect width="73" height="73" rx="22" fill="url(#paint0_linear_1347_2101)"/>
<path d="M34 37.885L30.115 34L28 36.115L34 42.115L46 30.115L43.885 28L34 37.885Z" fill="white"/>
<path d="M37 58L27.736 53.0605C25.0948 51.6557 22.8861 49.5581 21.347 46.9928C19.8079 44.4276 18.9965 41.4916 19 38.5V19C19 18.2044 19.3161 17.4413 19.8787 16.8787C20.4413 16.3161 21.2044 16 22 16H52C52.7957 16 53.5587 16.3161 54.1213 16.8787C54.6839 17.4413 55 18.2044 55 19V38.5C55.0035 41.4916 54.1922 44.4276 52.6531 46.9928C51.114 49.5581 48.9052 51.6557 46.264 53.0605L37 58ZM22 19V38.5C21.9983 40.9475 22.6628 43.3494 23.9222 45.448C25.1816 47.5467 26.9885 49.263 29.149 50.413L37 54.5995L44.851 50.4145C47.0118 49.2644 48.8188 47.5478 50.0782 45.4489C51.3376 43.35 52.002 40.9478 52 38.5V19H22Z" fill="white"/>
<defs>
<linearGradient id="paint0_linear_1347_2101" x1="36.5" y1="73" x2="36.5" y2="0" gradientUnits="userSpaceOnUse">
<stop stop-color="#00B0B5"/>
<stop offset="1" stop-color="#0092D5"/>
</linearGradient>
</defs>
</svg>
