<svg width="73" height="73" viewBox="0 0 73 73" fill="none" xmlns="http://www.w3.org/2000/svg">
<rect width="73" height="73" rx="22" fill="url(#paint0_linear_1347_2124)"/>
<path d="M36.5 55C31.0472 55 26.4344 54.2038 22.6615 52.6114C18.8886 51.0191 17.0014 49.0745 17 46.7778V26.2222C17 23.9611 18.9052 22.0255 22.7157 20.4153C26.5261 18.8051 31.1209 18 36.5 18C41.8791 18 46.4746 18.8051 50.2865 20.4153C54.0984 22.0255 56.0029 23.9611 56 26.2222V46.7778C56 49.0731 54.1128 51.0177 50.3385 52.6114C46.5642 54.2052 41.9513 55.0014 36.5 55ZM36.5 30.3847C39.7139 30.3847 42.9458 29.9476 46.1958 29.0733C49.4458 28.199 51.2694 27.2658 51.6667 26.2736C51.2694 25.2801 49.4552 24.338 46.224 23.4472C42.9928 22.5565 39.7514 22.1111 36.5 22.1111C33.2139 22.1111 29.9913 22.5483 26.8323 23.4226C23.6733 24.2969 21.8403 25.2472 21.3333 26.2736C21.8389 27.3014 23.6719 28.2435 26.8323 29.1C29.9928 29.9565 33.2153 30.3847 36.5 30.3847ZM36.5 40.6111C38.0167 40.6111 39.4792 40.5426 40.8875 40.4056C42.2958 40.2685 43.6413 40.0712 44.924 39.8136C46.2067 39.5559 47.4164 39.2394 48.5532 38.8639C49.6899 38.4884 50.7278 38.0602 51.6667 37.5792V31.4125C50.7278 31.8921 49.6899 32.3204 48.5532 32.6972C47.4164 33.0741 46.2067 33.3913 44.924 33.6489C43.6413 33.9066 42.2958 34.1032 40.8875 34.2389C39.4792 34.3746 38.0167 34.4431 36.5 34.4444C34.9833 34.4458 33.5028 34.3773 32.0583 34.2389C30.6139 34.1005 29.2503 33.9031 27.9677 33.6469C26.685 33.3906 25.4847 33.0741 24.3667 32.6972C23.2487 32.3204 22.2376 31.8921 21.3333 31.4125V37.5792C22.2361 38.0588 23.2472 38.487 24.3667 38.8639C25.4861 39.2407 26.6872 39.558 27.9698 39.8156C29.2525 40.0732 30.6153 40.2699 32.0583 40.4056C33.5013 40.5412 34.9819 40.6097 36.5 40.6111ZM36.5 50.8889C38.1611 50.8889 39.8497 50.769 41.5657 50.5292C43.2817 50.2894 44.8612 49.9728 46.3042 49.5795C47.7472 49.1862 48.9569 48.7408 49.9333 48.2434C50.9098 47.7459 51.4876 47.2403 51.6667 46.7264V41.6903C50.7278 42.1699 49.6899 42.5981 48.5532 42.975C47.4164 43.3519 46.2067 43.6691 44.924 43.9267C43.6413 44.1844 42.2958 44.381 40.8875 44.5167C39.4792 44.6523 38.0167 44.7209 36.5 44.7222C34.9833 44.7236 33.5028 44.6551 32.0583 44.5167C30.6139 44.3783 29.2503 44.1809 27.9677 43.9247C26.685 43.6684 25.4847 43.3519 24.3667 42.975C23.2487 42.5981 22.2376 42.1699 21.3333 41.6903V46.7778C21.5139 47.2917 22.083 47.7884 23.0407 48.2681C23.9983 48.7477 25.1987 49.1848 26.6417 49.5795C28.0847 49.9742 29.6736 50.2907 31.4083 50.5292C33.1431 50.7676 34.8403 50.8875 36.5 50.8889Z" fill="white"/>
<defs>
<linearGradient id="paint0_linear_1347_2124" x1="36.5" y1="73" x2="36.5" y2="0" gradientUnits="userSpaceOnUse">
<stop stop-color="#00B0B5"/>
<stop offset="1" stop-color="#0092D5"/>
</linearGradient>
</defs>
</svg>
