<svg width="73" height="73" viewBox="0 0 73 73" fill="none" xmlns="http://www.w3.org/2000/svg">
<rect width="73" height="73" rx="22" fill="url(#paint0_linear_1347_2083)"/>
<path d="M24.75 53C21.5098 53 18.7418 51.9172 16.446 49.7516C14.1501 47.5859 13.0014 44.9391 13 41.8109C13 39.1297 13.8367 36.7406 15.5102 34.6438C17.1837 32.5469 19.3735 31.2062 22.0795 30.6219C22.9697 27.4594 24.75 24.8984 27.4205 22.9391C30.0909 20.9797 33.1174 20 36.5 20C40.6659 20 44.2002 21.4011 47.1028 24.2034C50.0054 27.0056 51.456 30.417 51.4545 34.4375C53.9114 34.7125 55.9502 35.7355 57.571 37.5065C59.1917 39.2775 60.0014 41.3482 60 43.7188C60 46.2969 59.0657 48.4886 57.1971 50.294C55.3285 52.0994 53.0582 53.0014 50.3864 53H24.75ZM24.75 48.875H50.3864C51.8818 48.875 53.1458 48.3766 54.1784 47.3797C55.211 46.3828 55.7273 45.1625 55.7273 43.7188C55.7273 42.275 55.211 41.0547 54.1784 40.0578C53.1458 39.0609 51.8818 38.5625 50.3864 38.5625H47.1818V34.4375C47.1818 31.5844 46.14 29.152 44.0563 27.1404C41.9727 25.1287 39.4539 24.1236 36.5 24.125C33.5461 24.1264 31.0273 25.1322 28.9437 27.1424C26.86 29.1527 25.8182 31.5844 25.8182 34.4375H24.75C22.6848 34.4375 20.9223 35.1422 19.4625 36.5516C18.0027 37.9609 17.2727 39.6625 17.2727 41.6562C17.2727 43.65 18.0027 45.3516 19.4625 46.7609C20.9223 48.1703 22.6848 48.875 24.75 48.875Z" fill="white"/>
<defs>
<linearGradient id="paint0_linear_1347_2083" x1="36.5" y1="73" x2="36.5" y2="0" gradientUnits="userSpaceOnUse">
<stop stop-color="#00B0B5"/>
<stop offset="1" stop-color="#0092D5"/>
</linearGradient>
</defs>
</svg>
